<svg xmlns="http://www.w3.org/2000/svg" viewBox="0 0 256 256" role="img" aria-label="Decorative butterfly sticker"><defs><linearGradient id="pinkWing" x1="0" y1="0" x2="1" y2="1"><stop stop-color="#ff8fbd"/><stop offset="1" stop-color="#c55ce5"/></linearGradient><linearGradient id="blueWing" x1="0" y1="0" x2="1" y2="1"><stop stop-color="#7adfff"/><stop offset="1" stop-color="#557be8"/></linearGradient></defs><g><ellipse cx="128" cy="143" rx="12" ry="48" fill="#342842"/><circle cx="128" cy="94" r="13" fill="#342842"/><path d="M120 84c-12-20-26-25-38-28M136 84c12-20 26-25 38-28" fill="none" stroke="#342842" stroke-width="5" stroke-linecap="round"/><path d="M119 120C95 62 45 44 29 76c-14 29 18 61 67 72-40 12-58 43-41 63 18 21 52 0 71-46z" fill="url(#pinkWing)" stroke="#60336f" stroke-width="7" stroke-linejoin="round"/><path d="M137 120c24-58 74-76 90-44 14 29-18 61-67 72 40 12 58 43 41 63-18 21-52 0-71-46z" fill="url(#blueWing)" stroke="#3d4f8e" stroke-width="7" stroke-linejoin="round"/><g fill="#fff4a8" stroke="#8a4c78" stroke-width="4"><circle cx="76" cy="96" r="13"/><circle cx="96" cy="124" r="8"/></g><g fill="#d7f5ff" stroke="#5169a8" stroke-width="4"><circle cx="180" cy="96" r="13"/><circle cx="160" cy="124" r="8"/></g><g fill="#ffe3f0" stroke="#8a4c78" stroke-width="4"><circle cx="82" cy="171" r="10"/><circle cx="104" cy="186" r="7"/></g><g fill="#e6f7ff" stroke="#5169a8" stroke-width="4"><circle cx="174" cy="171" r="10"/><circle cx="152" cy="186" r="7"/></g><path d="M57 112c12 4 21 12 28 23M199 112c-12 4-21 12-28 23M67 181c10-5 22-6 34-1M189 181c-10-5-22-6-34-1" fill="none" stroke="#ffffff" stroke-width="4" stroke-linecap="round" opacity=".72"/><path d="M88 75c7 8 12 17 15 27M168 75c-7 8-12 17-15 27" fill="none" stroke="#ffe8f5" stroke-width="4" stroke-linecap="round" opacity=".7"/></g></svg>