<svg xmlns="http://www.w3.org/2000/svg" viewBox="0 0 256 256"><defs><radialGradient id="a"><stop stop-color="#fff7bf"/><stop offset="1" stop-color="#ffc928"/></radialGradient><linearGradient id="b" x1="0" y1="0" x2="1" y2="1"><stop stop-color="#ff70ba"/><stop offset="1" stop-color="#9d52ee"/></linearGradient></defs><path d="M126 24l16 40 40 16-40 16-16 40-16-40-40-16 40-16 16-40z" fill="url(#a)" stroke="#d58a12" stroke-width="6"/><path d="M191 91l10 24 24 10-24 10-10 24-10-24-24-10 24-10 10-24z" fill="url(#b)" stroke="#7e3dc0" stroke-width="5"/><path d="M67 136l12 29 29 12-29 12-12 29-12-29-29-12 29-12 12-29z" fill="#57d7ff" stroke="#2587c7" stroke-width="5"/><path d="M157 166l7 16 16 7-16 7-7 16-7-16-16-7 16-7 7-16z" fill="#fff2a5" stroke="#d99b17" stroke-width="4"/><circle cx="126" cy="80" r="7" fill="#fff" opacity=".8"/></svg>