<svg xmlns="http://www.w3.org/2000/svg" viewBox="0 0 256 256"><path d="M50 132c0-49 31-88 78-88s78 39 78 88" fill="none" stroke="#584b7c" stroke-width="18" stroke-linecap="round"/><path d="M73 126c-16 0-29 13-29 29v28c0 16 13 29 29 29h17v-86H73z" fill="#7f74a8" stroke="#4f466b" stroke-width="7"/><path d="M183 126c16 0 29 13 29 29v28c0 16-13 29-29 29h-17v-86h17z" fill="#7f74a8" stroke="#4f466b" stroke-width="7"/><rect x="55" y="143" width="24" height="51" rx="12" fill="#d9d1ef"/><rect x="177" y="143" width="24" height="51" rx="12" fill="#d9d1ef"/><path d="M91 67c20-13 54-13 74 0" fill="none" stroke="#fff" stroke-width="9" stroke-linecap="round" opacity=".48"/></svg>